# xmcd
#
# Track frame offsets:
#	150
#	9177
#	23395
#	31583
#	40737
#	59965
#	62765
#	72754
#	83341
#	90418
#	102107
#	117372
#	127462
#	139431
#	153177
#	162294
#	176115
#	188264
#	200648
#	220026
#
# Disc length: 3084 seconds
#
# Revision: 7
# Processed by: cddbd v1.5.2PL0 Copyright (c) Steve Scherf et al.
# Submitted via: audiograbber 1.83.01
#
DISCID=030c0a14
DTITLE=Various Artist - Country Greats - Volume 5
DYEAR=1999
DGENRE=Oldies
TTITLE0=Willie Nelson - Building Heartaches
TTITLE1=Barbara Mandrell - Almost Persuaded
TTITLE2=Danny Davis and Nashville Brass - Mountain Dew
TTITLE3=George Jones - Jonesy
TTITLE4=Barbara Fairchild - Drifter
TTITLE5=Bob Wills - Bob's First Fiddle Tune
TTITLE6=Carl Perkins - Maybelinne
TTITLE7=Conway Twitty - It's Only Make Believe
TTITLE8=George Jones - Ways Of The World
TTITLE9=Don Williams and Emmylou Harris - Follow Me Back To Louisville
TTITLE10=Ferlin Huskey - Phantom 309
TTITLE11=Patsy Cline - Three Cigarettes In An Ash Tray
TTITLE12=Porter Wagoner - I'll Start Tomorrow
TTITLE13=Razzy Bailey - Rocking In The Parking Lot
TTITLE14=Mickey Gilley - In The Wants Ads
TTITLE15=Merle Haggard - That's The Way Love Goes
TTITLE16=Johnny Paycheck - Song And Dance Man
TTITLE17=Jackson Stonewall - Love Gets All Over Me
TTITLE18=Barbara Fairchild - Too Old For The Dress
TTITLE19=Willie Nelson - Touch Me
EXTD=
EXTT0=
EXTT1=
EXTT2=
EXTT3=
EXTT4=
EXTT5=
EXTT6=
EXTT7=
EXTT8=
EXTT9=
EXTT10=
EXTT11=
EXTT12=
EXTT13=
EXTT14=
EXTT15=
EXTT16=
EXTT17=
EXTT18=
EXTT19=
PLAYORDER=
